<svg viewBox="0 0 512 512" xmlns="http://www.w3.org/2000/svg" xmlns:xlink="http://www.w3.org/1999/xlink"><linearGradient id="a" gradientTransform="matrix(1 0 0 -1 0 -15158)" gradientUnits="userSpaceOnUse" x1="0" x2="512" y1="-15414" y2="-15414"><stop offset="0" stop-color="#00f1ff"/><stop offset=".231" stop-color="#00d8ff"/><stop offset=".5138" stop-color="#00c0ff"/><stop offset=".7773" stop-color="#00b2ff"/><stop offset="1" stop-color="#00adff"/></linearGradient><path d="m512 256c0 141.386719-114.613281 256-256 256s-256-114.613281-256-256 114.613281-256 256-256 256 114.613281 256 256zm0 0" fill="url(#a)"/><path d="m428.433594 183.90625c-18.035156-18.035156-42.964844-27.566406-72.09375-27.566406-59.480469 0-88.402344 49.097656-113.921875 92.417968-24.3125 41.265626-45.304688 76.902344-86.757813 76.902344-42.96875 0-69.660156-26.691406-69.660156-69.660156s26.691406-69.660156 69.660156-69.660156c18.378906 0 34.984375 7.351562 50.765625 22.480468 5.976563 5.730469 15.472657 5.53125 21.207031-.449218 5.730469-5.980469 5.53125-15.476563-.449218-21.207032-21.335938-20.453124-45.402344-30.824218-71.523438-30.824218-29.128906 0-54.0625 9.53125-72.09375 27.566406-18.035156 18.03125-27.566406 42.964844-27.566406 72.09375s9.53125 54.0625 27.566406 72.09375c18.035156 18.035156 42.964844 27.566406 72.09375 27.566406 48.265625 0 76.242188-33.046875 98.753906-68.714844 16.277344 28.019532 49.023438 68.714844 101.925782 68.714844 11.460937 0 22.410156-1.507812 32.546875-4.476562 7.953125-2.332032 12.507812-10.667969 10.175781-18.617188-2.332031-7.949218-10.667969-12.503906-18.613281-10.171875-7.394531 2.167969-15.507813 3.265625-24.109375 3.265625-48.199219 0-75.734375-51.335937-83.769532-68.972656 22.808594-38.476562 43.929688-70.347656 83.769532-70.347656 42.96875 0 69.660156 26.691406 69.660156 69.660156 0 9.644531-1.347656 18.605469-4.011719 26.640625-2.601562 7.863281 1.660157 16.347656 9.523438 18.953125 7.867187 2.605469 16.351562-1.65625 18.957031-9.519531 3.671875-11.082031 5.53125-23.21875 5.53125-36.074219 0-29.128906-9.53125-54.0625-27.566406-72.09375zm0 0" fill="#fff"/></svg>